<?xml version="1.0" standalone="no"?>
<!DOCTYPE svg PUBLIC "-//W3C//DTD SVG 20010904//EN"
 "http://www.w3.org/TR/2001/REC-SVG-20010904/DTD/svg10.dtd">
<svg version="1.0" xmlns="http://www.w3.org/2000/svg"
 width="350.000000pt" height="350.000000pt" viewBox="0 0 350.000000 350.000000"
 preserveAspectRatio="xMidYMid meet">
<metadata>
Created by potrace 1.11, written by Peter Selinger 2001-2013
</metadata>
<g transform="translate(0.000000,350.000000) scale(0.100000,-0.100000)"
fill="#000000" stroke="none">
<path d="M1974 2836 c-45 -45 -47 -92 -5 -138 l29 -33 116 -3 116 -4 0 -908 0
-908 -115 -4 c-110 -3 -116 -4 -142 -31 -22 -22 -28 -37 -28 -73 0 -39 5 -50
33 -75 l32 -29 318 0 c348 0 361 2 387 57 22 46 18 79 -14 115 l-29 33 -116 3
-116 4 0 909 0 909 110 0 c106 0 111 1 140 28 22 19 33 39 37 69 5 39 2 46
-30 78 l-35 35 -327 0 -327 0 -34 -34z"/>
<path d="M424 2353 l-24 -26 0 -577 c0 -554 1 -579 19 -601 l19 -24 846 -3
846 -2 0 629 0 629 -841 0 -842 0 -23 -25z"/>
<path d="M2540 1750 l0 -629 255 -1 256 0 24 24 25 25 0 579 c0 556 -1 581
-19 603 l-19 24 -261 2 -261 2 0 -629z"/>
</g>
</svg>
